# xmcd
#
# Track frame offsets:
# 150
# 21310
# 40297
# 60838
# 80307
# 101792
# 126435
# 145093
# 170743
# 191086
# 225253
# 244957
# 261391
# 276808
# 297993
# 317513
#
# Disc length: 4473 seconds
#
#
# Revision: 1
# Processed by: cddbd v1.5PL3 Copyright (c) Steve Scherf et al.
# Submitted via: FreeRIP 2.60 
#
DISCID=e8117710
DTITLE=Celine Dion - Best Ballads
DYEAR=1900
DGENRE=
TTITLE0=Think Twice
TTITLE1=Pour Que Tu M'Aimes Encore
TTITLE2=Because You Loved Me
TTITLE3=Falling Into You
TTITLE4=Only One Road
TTITLE5=I Love You
TTITLE6=Love Doesn't Ask Why
TTITLE7=The Power Of Love
TTITLE8=Je Sais Pas
TTITLE9=It's All Coming Back To Me Now
TTITLE10=No Living Wothout Loving You
TTITLE11=You Make Me Fill Like A Natural Woman
TTITLE12=The Colour Of My Love
TTITLE13=Call The Man
TTITLE14=When I Fall In Love
TTITLE15=Beauty And The Beast
EXTD=
EXTT0=
EXTT1=
EXTT2=
EXTT3=
EXTT4=
EXTT5=
EXTT6=
EXTT7=
EXTT8=
EXTT9=
EXTT10=
EXTT11=
EXTT12=
EXTT13=
EXTT14=
EXTT15=
PLAYORDER=
